<?xml version="1.0" encoding="utf-8" ?>
<svg xmlns="http://www.w3.org/2000/svg" width="32" height="32" xmlns:xlink="http://www.w3.org/1999/xlink">
<defs>
	<polygon id="rune-core" points="0,-10 10,0 0,10 -10,0" fill="#83FFFF" />
	<polygon id="rune-left-down" points="-10,0 -20,0 -10,10 0,10" fill="#83FFFF" />
	<polygon id="rune-left-middle" points="-10,0 -20,0 -10,-10 0,-10" fill="#83FFFF" />
	<polygon id="rune-left-up" points="0,-10 -10,-10 -10,-20 0,-20" fill="#83FFFF" />
	<polygon id="rune-right-down" points="10,0 20,0 10,10 0,10" fill="#83FFFF" />
	<polygon id="rune-right-middle" points="10,0 20,0 10,-10 0,-10" fill="#83FFFF" />
	<polygon id="rune-right-up" points="0,-10 10,-10 10,-20 0,-20" fill="#83FFFF" />
</defs>
<g transform="translate(16,19),scale(0.8)">
    <use xlink:href="#rune-core" />
    <use xlink:href="#rune-left-down" />
    <use xlink:href="#rune-left-middle" />
    <use xlink:href="#rune-left-up" />
    <use xlink:href="#rune-right-down" />
    <use xlink:href="#rune-right-middle" />
    <use xlink:href="#rune-right-up" />
</g>
</svg>
